<svg
  aria-hidden="true"
  style="position:absolute;width:0;height:0;overflow:hidden"
  xmlns="http://www.w3.org/2000/svg"
>
  <symbol id="icon-dropdown-open" viewBox="0 0 32 32">
    <path
      d="M4 24h24v-2.667H4V24zm0-6.667h24v-2.667H4v2.667zM4 8v2.667h24V8H4z"
      fill="currentColor"
    />
  </symbol>

  <symbol id="icon-dropdown-close" viewBox="0 0 32 32"> 
  <path d="M25.333 8.547l-1.88-1.88-7.453 7.453-7.453-7.453-1.88 1.88 7.453 7.453-7.453 7.453 1.88 1.88 7.453-7.453 7.453 7.453 1.88-1.88-7.453-7.453 7.453-7.453z"></path>
   </symbol>
   <symbol id="icon-home" viewBox="0 0 32 32">
<path fill="#498167" style="fill: var(--color1, #498167)" d="M8.5 10h1.25v0.44c0 0.69 0.56 1.25 1.25 1.25s1.25-0.56 1.25-1.25v-1.69c0-0.536-0.337-0.993-0.811-1.171l4.561-4.561 4.561 4.561c-0.474 0.178-0.811 0.635-0.811 1.171v6.69c0 0.69 0.56 1.25 1.25 1.25s1.25-0.56 1.25-1.25v-5.44h1.25c0.506 0 0.961-0.305 1.155-0.772s0.087-1.005-0.271-1.362l-7.5-7.5c-0.488-0.488-1.28-0.488-1.768 0l-7.5 7.5c-0.357 0.357-0.464 0.895-0.271 1.362s0.649 0.772 1.155 0.772z"></path>
<path fill="#498167" style="fill: var(--color1, #498167)" d="M31.71 25.45l-6.25-7.5c-0.238-0.285-0.589-0.45-0.96-0.45s-0.723 0.165-0.96 0.45l-6.25 7.5c-0.311 0.373-0.378 0.891-0.172 1.331s0.647 0.72 1.132 0.72h1.25v2h-7v-7h1.25c0.485 0 0.926-0.281 1.132-0.72s0.139-0.958-0.172-1.33l-6.25-7.5c-0.238-0.285-0.589-0.45-0.96-0.45s-0.723 0.165-0.96 0.45l-6.25 7.5c-0.31 0.373-0.377 0.891-0.172 1.33s0.647 0.72 1.132 0.72h1.25v8.25c0 0.69 0.56 1.25 1.25 1.25h24.5c0.69 0 1.25-0.56 1.25-1.25v-3.25h1.25c0.485 0 0.926-0.281 1.132-0.72s0.139-0.958-0.172-1.33zM3.91 20.010l3.59-4.308 3.59 4.308c-0.615 0.079-1.090 0.604-1.090 1.24v8.25h-5v-8.25c0-0.636-0.475-1.161-1.090-1.24zM27 26.25v3.25h-5v-3.25c0-0.636-0.475-1.161-1.090-1.24l3.59-4.308 3.59 4.308c-0.615 0.079-1.090 0.604-1.090 1.24z"></path>
</symbol>
<symbol id="icon-person" viewBox="0 0 32 32">
<path fill="#498167" style="fill: var(--color1, #498167)" d="M30.748 9.907c-0 0-0 0-0.001 0h-4.749c-0.692 0-1.252 0.56-1.252 1.25s0.561 1.25 1.252 1.25h1.718l-6.278 6.243v-1.874c0-2.614-1.384-4.911-3.459-6.2 1.312-1.1 2.147-2.748 2.147-4.587 0-3.302-2.692-5.989-6-5.989s-6 2.687-6 5.989c0 1.84 0.835 3.487 2.147 4.587-2.075 1.289-3.459 3.586-3.459 6.2v6.679l-6.445 6.409c-0.49 0.487-0.491 1.279-0.003 1.768 0.489 0.49 1.282 0.489 1.771 0.003 0.756-0.751 7.709-7.666 8.909-8.86l4.012 3.99c0.489 0.486 1.279 0.486 1.768 0l12.669-12.599v1.729c0 0.69 0.561 1.25 1.252 1.25s1.252-0.56 1.252-1.25v-4.739c0-0.685-0.557-1.249-1.252-1.25zM14.126 2.5c1.928 0 3.496 1.565 3.496 3.489s-1.568 3.489-3.496 3.489c-1.928 0-3.496-1.565-3.496-3.489s1.568-3.489 3.496-3.489zM18.933 21.141l-2.991 2.975-4.012-3.99c-0.489-0.486-1.279-0.486-1.768 0l-0.843 0.839v-4.189c0-2.645 2.157-4.798 4.807-4.798s4.808 2.153 4.808 4.798v4.366z"></path>
</symbol>
<symbol id="icon-internet" viewBox="0 0 32 32">
<path fill="#498167" style="fill: var(--color1, #498167)" d="M16 0c-8.843 0-16 7.156-16 16 0 8.843 7.156 16 16 16 8.843 0 16-7.156 16-16 0-8.843-7.156-16-16-16zM28.016 9.833h-2.151c-0.467-1.317-1.651-2.298-3.080-2.471-0.465-1.502-1.043-2.804-1.708-3.878 3.071 1.245 5.51 3.573 6.939 6.349zM10.526 17.267c-0.017-0.422-0.026-0.845-0.026-1.267 0-1.258 0.074-2.488 0.217-3.667h8.078c0.423 1.192 1.432 2.108 2.679 2.4 0.017 0.422 0.026 0.845 0.026 1.267 0 1.258-0.074 2.488-0.218 3.667h-8.078c-0.423-1.192-1.432-2.108-2.679-2.4zM10.92 20.917c0 0.689-0.561 1.25-1.25 1.25s-1.25-0.561-1.25-1.25c0-0.691 0.565-1.25 1.25-1.25 0.689 0 1.25 0.561 1.25 1.25zM21.080 11.083c0-0.689 0.561-1.25 1.25-1.25s1.25 0.561 1.25 1.25c0 0.698-0.571 1.249-1.248 1.25-0.001 0-0.001 0-0.002 0s-0 0-0 0c-0.689-0-1.25-0.561-1.25-1.25zM16 2.5c2.119 0 3.687 3.392 4.335 5.41-0.708 0.446-1.256 1.122-1.54 1.923h-7.652c0.586-2.634 2.279-7.333 4.857-7.333zM10.923 3.484c-1.157 1.873-1.897 4.176-2.333 6.349h-4.606c1.429-2.776 3.867-5.104 6.939-6.349zM2.5 16c0-1.257 0.171-2.488 0.502-3.667h5.2c-0.133 1.188-0.202 2.417-0.202 3.667 0 0.513 0.013 1.028 0.037 1.541-0.882 0.428-1.571 1.193-1.902 2.125h-3.133c-0.33-1.178-0.502-2.409-0.502-3.667zM3.984 22.167h2.151c0.467 1.317 1.651 2.298 3.080 2.471 0.466 1.502 1.043 2.804 1.708 3.878-3.071-1.245-5.51-3.573-6.939-6.349zM16 29.5c-2.119 0-3.687-3.393-4.335-5.41 0.708-0.447 1.256-1.122 1.54-1.923h7.652c-0.586 2.634-2.279 7.333-4.857 7.333zM21.077 28.516c1.157-1.873 1.897-4.176 2.333-6.349h4.605c-1.428 2.776-3.867 5.104-6.939 6.349zM23.798 19.667c0.133-1.188 0.202-2.417 0.202-3.667 0-0.513-0.013-1.028-0.037-1.541 0.882-0.428 1.571-1.193 1.902-2.125h3.133c0.33 1.178 0.502 2.409 0.502 3.667s-0.171 2.488-0.502 3.667h-5.2z"></path>
</symbol>


<symbol id="icon-star" viewBox="0 0 10 10">
  <path
    fill="var(--color1, #4b8369)"
    d="M5 0.5
       L6.2 3.6
       L9.5 5
       L6.2 6.4
       L5 9.5
       L3.8 6.4
       L0.5 5
       L3.8 3.6
       Z"
  />
</symbol>

<symbol id="icon-localization" viewBox="5.2 2.4 22 22">
<path fill="#498067" style="fill: var(--color1, #498067)" d="M16 2.667c5.891 0 10.667 4.776 10.667 10.667s-4.776 10.667-10.667 10.667c-5.891 0-10.667-4.776-10.667-10.667s4.776-10.667 10.667-10.667z"></path>
<path fill="#fff" style="fill: var(--color2, #fff)" d="M11.639 18.032c0.749 0.696 1.636 1.195 2.599 1.468-0.592-0.743-0.979-1.758-1.216-2.677-0.524 0.326-0.991 0.735-1.383 1.209z"></path>
<path fill="#fff" style="fill: var(--color2, #fff)" d="M13.021 9.847c0.235-0.915 0.623-1.935 1.217-2.68-0.965 0.274-1.855 0.775-2.605 1.474 0.388 0.469 0.855 0.877 1.388 1.206z"></path>
<path fill="#fff" style="fill: var(--color2, #fff)" d="M15.623 19.671v-3.685c-0.678 0.045-1.323 0.209-1.915 0.473 0.133 0.553 0.301 1.066 0.504 1.521 0.4 0.901 0.9 1.492 1.412 1.691z"></path>
<path fill="#fff" style="fill: var(--color2, #fff)" d="M13.361 13.227c-0.006 0.821 0.053 1.658 0.192 2.474 0.523-0.216 1.075-0.362 1.645-0.432l-1.837-2.041z"></path>
<path fill="#fff" style="fill: var(--color2, #fff)" d="M16.377 6.996v3.202c0.588-0.344 1.324-0.345 1.913-0.001-0.132-0.549-0.3-1.058-0.501-1.511-0.4-0.901-0.9-1.492-1.412-1.691z"></path>
<path fill="#fff" style="fill: var(--color2, #fff)" d="M18.479 11.839c0-0.632-0.512-1.145-1.145-1.145-0.306 0-0.593 0.119-0.809 0.335l-0.525 0.525-0.525-0.525c-0.447-0.447-1.171-0.448-1.618-0-0.437 0.437-0.444 1.128-0.042 1.575l2.185 2.428 2.185-2.428c0.189-0.21 0.294-0.482 0.294-0.765z"></path>
<path fill="#fff" style="fill: var(--color2, #fff)" d="M13.709 10.197c0.588-0.344 1.325-0.344 1.913 0.001v-3.202c-0.512 0.198-1.011 0.79-1.412 1.691-0.201 0.453-0.369 0.962-0.501 1.511z"></path>
<path fill="#fff" style="fill: var(--color2, #fff)" d="M12.849 16.044c-0.138-0.735-0.219-1.522-0.238-2.333h-3.010c0.080 1.397 0.607 2.709 1.512 3.771 0.504-0.592 1.094-1.074 1.737-1.438z"></path>
<path fill="#fff" style="fill: var(--color2, #fff)" d="M19.389 13.71c-0.019 0.812-0.1 1.598-0.238 2.333 0.643 0.364 1.233 0.846 1.737 1.438 0.905-1.062 1.431-2.374 1.512-3.771h-3.010z"></path>
<path fill="#fff" style="fill: var(--color2, #fff)" d="M12.61 12.956c0.019-0.812 0.1-1.6 0.239-2.335-0.66-0.373-1.248-0.859-1.738-1.436-0.904 1.062-1.431 2.374-1.511 3.771h3.010z"></path>
<path fill="#fff" style="fill: var(--color2, #fff)" d="M19.151 10.621c0.138 0.735 0.219 1.523 0.239 2.335h3.010c-0.080-1.397-0.607-2.709-1.511-3.771-0.489 0.577-1.077 1.063-1.738 1.436z"></path>
<path fill="#fff" style="fill: var(--color2, #fff)" d="M18.639 13.227l-1.837 2.041c0.57 0.071 1.122 0.216 1.645 0.432 0.139-0.816 0.198-1.653 0.192-2.474z"></path>
<path fill="#fff" style="fill: var(--color2, #fff)" d="M16.377 19.671c0.512-0.198 1.011-0.79 1.412-1.691 0.202-0.456 0.371-0.968 0.504-1.521-0.592-0.264-1.238-0.428-1.915-0.473v3.685z"></path>
<path fill="#fff" style="fill: var(--color2, #fff)" d="M20.368 8.641c-0.75-0.699-1.64-1.2-2.605-1.474 0.594 0.746 0.981 1.765 1.217 2.68 0.534-0.329 1.001-0.738 1.388-1.206z"></path>
<path fill="#fff" style="fill: var(--color2, #fff)" d="M20.361 18.032c-0.392-0.474-0.859-0.883-1.383-1.209-0.237 0.919-0.624 1.934-1.216 2.677 0.962-0.274 1.85-0.772 2.599-1.468z"></path>
</symbol>
<symbol id="icon-markets" viewBox="5.2 2.4 22 22">
<path fill="#498067" style="fill: var(--color1, #498067)" d="M16 2.667c5.891 0 10.667 4.776 10.667 10.667s-4.776 10.667-10.667 10.667c-5.891 0-10.667-4.776-10.667-10.667s4.776-10.667 10.667-10.667z"></path>
<path fill="#fff" style="fill: var(--color2, #fff)" d="M21.333 18.042h-0.625v-6.292h-1.896v6.292h-0.625v-3.792h-1.875v3.792h-0.625v-5.042h-1.875v5.042h-0.625v-3.167h-1.896v3.167h-0.625v0.625h10.667v-0.625z"></path>
<path fill="#fff" style="fill: var(--color2, #fff)" d="M21.333 10.5v-2.5h-2.521v0.625h1.454l-3.016 2.996-2.5-2.5-3.992 3.971 0.442 0.442 3.55-3.529 2.5 2.5 3.458-3.438v1.433h0.625z"></path>
</symbol>
<symbol id="icon-experts" viewBox="5.2 2.4 22 22">
<path fill="#498067" style="fill: var(--color1, #498067)" d="M16 2.667c5.891 0 10.667 4.776 10.667 10.667s-4.776 10.667-10.667 10.667c-5.891 0-10.667-4.776-10.667-10.667s4.776-10.667 10.667-10.667z"></path>
<path fill="#fff" style="fill: var(--color2, #fff)" d="M12.186 16.33c-0.219 0.097-0.461 0.151-0.715 0.151s-0.496-0.054-0.715-0.151c-0.675 0.281-1.152 0.948-1.152 1.724v0.653h3.138v-0.126c0-0.524 0.125-1.020 0.346-1.459-0.204-0.353-0.521-0.634-0.901-0.792z"></path>
<path fill="#fff" style="fill: var(--color2, #fff)" d="M21.235 16.334c-0.217 0.094-0.456 0.147-0.707 0.147-0.258 0-0.503-0.056-0.724-0.155-0.378 0.155-0.695 0.432-0.901 0.78 0.226 0.443 0.354 0.944 0.354 1.475v0.126h3.119v-0.653c0-0.772-0.472-1.437-1.142-1.72z"></path>
<path fill="#fff" style="fill: var(--color2, #fff)" d="M12.419 15.102c0.217-0.523-0.031-1.123-0.554-1.34s-1.123 0.031-1.34 0.554c-0.217 0.523 0.031 1.123 0.554 1.34s1.123-0.031 1.34-0.554z"></path>
<path fill="#fff" style="fill: var(--color2, #fff)" d="M20.529 15.732c0.566 0 1.025-0.459 1.025-1.025s-0.459-1.025-1.025-1.025-1.025 0.459-1.025 1.025c0 0.566 0.459 1.025 1.025 1.025z"></path>
<path fill="#fff" style="fill: var(--color2, #fff)" d="M16 15.732c0.792 0 1.434-0.642 1.434-1.434s-0.642-1.434-1.434-1.434c-0.792 0-1.434 0.642-1.434 1.434s0.642 1.434 1.434 1.434z"></path>
<path fill="#fff" style="fill: var(--color2, #fff)" d="M16.954 16.262c-0.288 0.141-0.612 0.22-0.954 0.22s-0.666-0.079-0.954-0.22c-0.911 0.376-1.554 1.274-1.554 2.32v0.126h5.017v-0.126c0-1.046-0.643-1.944-1.554-2.32z"></path>
<path fill="#fff" style="fill: var(--color2, #fff)" d="M16.794 8.495l-0.791-1.602h-0.005l-0.791 1.602-1.768 0.257-0.001 0.005 1.279 1.247-0.302 1.76 0.005 0.003 1.58-0.831 1.58 0.831 0.005-0.003-0.302-1.76 1.279-1.247-0.001-0.005-1.768-0.257z"></path>
<path fill="#fff" style="fill: var(--color2, #fff)" d="M10.559 12.995l0.004 0.002 0.921-0.707 1.105 0.357 0.003-0.002-0.388-1.094 0.681-0.94-0.001-0.003-1.161 0.031-0.684-0.939-0.003 0.001-0.329 1.114-1.104 0.361-0 0.004 0.958 0.657 0.002 1.161z"></path>
<path fill="#fff" style="fill: var(--color2, #fff)" d="M19.409 12.644l0.003 0.002 1.105-0.357 0.921 0.707 0.004-0.002 0.002-1.161 0.958-0.657-0-0.004-1.104-0.361-0.329-1.114-0.003-0.001-0.684 0.939-1.161-0.031-0.001 0.003 0.681 0.94-0.388 1.094z"></path>
</symbol>
<symbol id="icon-ai" viewBox="5.2 2.4 22 22">
<path fill="#498067" style="fill: var(--color1, #498067)" d="M16 2.667c5.891 0 10.667 4.776 10.667 10.667s-4.776 10.667-10.667 10.667c-5.891 0-10.667-4.776-10.667-10.667s4.776-10.667 10.667-10.667z"></path>
<path fill="#fff" style="fill: var(--color2, #fff)" d="M15.272 19.005c0 0.401 0.326 0.728 0.728 0.728s0.728-0.326 0.728-0.728v-0.297h-1.456v0.297z"></path>
<path fill="#fff" style="fill: var(--color2, #fff)" d="M14.623 16.803h2.754v1.155h-2.754v-1.155z"></path>
<path fill="#fff" style="fill: var(--color2, #fff)" d="M16 9.708c-1.832 0-3.323 1.491-3.323 3.324 0 1.224 0.67 2.346 1.749 2.928l0.174 0.094h2.8l0.174-0.094c1.079-0.582 1.75-1.703 1.75-2.928 0-1.833-1.491-3.324-3.324-3.324zM15.488 14.341l-1.128-1.128 0.53-0.53 0.597 0.597 1.62-1.62 0.53 0.53-2.151 2.15z"></path>
<path fill="#fff" style="fill: var(--color2, #fff)" d="M15.625 6.933h0.75v1.625h-0.75v-1.625z"></path>
<path fill="#fff" style="fill: var(--color2, #fff)" d="M18.978 9.638l1.149-1.149 0.53 0.53-1.149 1.149-0.53-0.53z"></path>
<path fill="#fff" style="fill: var(--color2, #fff)" d="M20.589 12.772h1.625v0.75h-1.625v-0.75z"></path>
<path fill="#fff" style="fill: var(--color2, #fff)" d="M18.977 16.656l0.53-0.53 1.149 1.149-0.53 0.53-1.149-1.149z"></path>
<path fill="#fff" style="fill: var(--color2, #fff)" d="M11.34 17.274l1.149-1.149 0.53 0.53-1.149 1.149-0.53-0.53z"></path>
<path fill="#fff" style="fill: var(--color2, #fff)" d="M9.786 12.772h1.625v0.75h-1.625v-0.75z"></path>
<path fill="#fff" style="fill: var(--color2, #fff)" d="M11.341 9.018l0.53-0.53 1.149 1.149-0.53 0.53-1.149-1.149z"></path>
</symbol>
<symbol id="icon-star-benefits" viewBox="0 0 32 32">
<path fill="#fff" style="fill: var(--color1, #fff)" opacity="0.4" d="M31.306 14.564c0.63-0.614 0.852-1.515 0.58-2.352s-0.982-1.435-1.853-1.562l-7.748-1.126c-0.33-0.048-0.615-0.255-0.762-0.554l-3.464-7.020c-0.389-0.789-1.178-1.279-2.058-1.279s-1.669 0.49-2.058 1.279l-3.465 7.021c-0.147 0.299-0.433 0.506-0.763 0.554l-7.748 1.126c-0.871 0.126-1.581 0.725-1.853 1.562s-0.049 1.738 0.581 2.352l5.606 5.465c0.239 0.233 0.349 0.569 0.292 0.897l-1.323 7.716c-0.117 0.679 0.061 1.34 0.5 1.861 0.683 0.812 1.876 1.059 2.829 0.558l6.929-3.643c0.29-0.152 0.654-0.151 0.943 0l6.93 3.643c0.337 0.178 0.696 0.267 1.068 0.267 0.677 0 1.319-0.301 1.761-0.825 0.44-0.521 0.618-1.183 0.5-1.861l-1.323-7.716c-0.056-0.329 0.053-0.664 0.292-0.897l5.606-5.465z"></path>
</symbol>

</svg>